<?xml version="1.0" encoding="utf-8"?>
<!-- Generator: Adobe Illustrator 25.0.0, SVG Export Plug-In . SVG Version: 6.00 Build 0)  -->
<svg version="1.1" id="Layer_1" xmlns="http://www.w3.org/2000/svg" xmlns:xlink="http://www.w3.org/1999/xlink" x="0px" y="0px"
	 viewBox="0 0 1080 1080" style="enable-background:new 0 0 1080 1080;" xml:space="preserve">
<style type="text/css">
	.st0{fill:#093651;}
	.st1{fill:#CE213A;}
</style>
<g>
	<g>
		<rect x="176.04" y="407.77" class="st1" width="95.2" height="95.2"/>
		<rect x="271.24" y="481.82" class="st0" width="95.2" height="95.2"/>
		<rect x="332.27" y="577.02" class="st1" width="95.2" height="95.2"/>
		<rect x="176.04" y="550.98" class="st0" width="95.2" height="95.2"/>
	</g>
	<g>
		<polygon class="st0" points="465.82,497.8 445.02,497.8 445.02,513.08 465.82,513.08 465.82,601.73 482.59,601.73 482.59,497.8 
			481.1,497.8 		"/>
		<path class="st0" d="M556.17,537.36c-4.9-2.81-10.38-4.23-16.42-4.23c-3.41,0-6.29,0.37-8.68,1.09l25.93-36.43h-19.76
			l-28.36,40.68c-6.62,9.7-9.95,19.28-9.95,28.79c0,6.64,1.62,12.69,4.83,18.11c3.23,5.45,7.61,9.78,13.16,12.99
			c5.52,3.23,11.77,4.83,18.69,4.83c6.84,0,13.04-1.62,18.64-4.9c5.6-3.26,10.03-7.66,13.29-13.21c3.28-5.52,4.9-11.67,4.9-18.41
			c0-6.72-1.47-12.59-4.45-17.59C565,544.08,561.07,540.17,556.17,537.36z M552.76,577.15c-1.74,3.11-4.08,5.57-7.07,7.34
			c-2.96,1.79-6.32,2.69-10.1,2.69c-3.76,0-7.12-0.9-10.08-2.69c-2.99-1.77-5.3-4.23-6.99-7.34c-1.69-3.11-2.51-6.59-2.51-10.48
			c0-3.86,0.82-7.29,2.51-10.3c1.69-3.04,4.01-5.42,6.99-7.22c2.96-1.77,6.32-2.66,10.08-2.66c3.78,0,7.14,0.87,10.1,2.59
			c2.99,1.74,5.32,4.13,7.07,7.22c1.72,3.06,2.59,6.52,2.59,10.38C555.35,570.55,554.48,574.04,552.76,577.15z"/>
		<path class="st1" d="M636.11,534.18c-5.05-2.99-10.77-4.45-17.22-4.45c-6.82,0-12.99,1.59-18.49,4.83
			c-5.5,3.21-9.85,7.59-13.06,13.14c-3.21,5.52-4.83,11.77-4.83,18.69c0,7.04,1.64,13.34,4.9,18.86c3.26,5.55,7.69,9.93,13.29,13.14
			c5.6,3.23,11.94,4.83,19.08,4.83c5.55,0,10.72-1.02,15.58-3.11c4.85-2.09,9.01-5.1,12.49-9.06l-8.63-8.76
			c-2.36,2.76-5.2,4.85-8.53,6.25c-3.31,1.37-6.94,2.07-10.9,2.07c-4.75,0-8.96-1.02-12.61-3.04c-3.68-2.04-6.49-4.9-8.48-8.61
			c-1.19-2.26-2.04-4.78-2.51-7.51h55.24c0.3-1.37,0.5-2.64,0.6-3.78c0.1-1.12,0.15-2.19,0.15-3.18c0-6.74-1.42-12.71-4.23-17.96
			C645.09,541.24,641.16,537.14,636.11,534.18z M596.23,560.3c0.42-2.54,1.22-4.88,2.31-6.99c1.89-3.56,4.55-6.32,8.04-8.31
			c3.46-1.97,7.46-2.96,12.02-2.96c4.35,0,8.06,0.92,11.15,2.74c3.06,1.84,5.42,4.4,7.12,7.74c1.14,2.26,1.92,4.85,2.29,7.79H596.23
			z"/>
		<path class="st1" d="M720.16,540.94c-2.49-3.28-5.6-5.92-9.36-7.89c-4.25-2.24-9.06-3.33-14.41-3.33
			c-6.44,0-12.24,1.62-17.37,4.88c-5.15,3.28-9.23,7.69-12.27,13.24c-3.01,5.52-4.53,11.77-4.53,18.69c0,6.94,1.52,13.19,4.53,18.71
			c3.04,5.55,7.12,9.93,12.27,13.14c5.13,3.23,10.92,4.83,17.37,4.83c5.45,0,10.3-1.09,14.56-3.33c3.71-1.94,6.79-4.55,9.21-7.81
			v9.68h13.51V495.71h-13.51V540.94z M718.22,578.94c-1.89,3.61-4.5,6.44-7.86,8.53c-3.38,2.07-7.29,3.11-11.74,3.11
			c-4.35,0-8.24-1.02-11.64-3.04c-3.41-2.04-6.1-4.88-8.01-8.53c-1.94-3.66-2.91-7.89-2.91-12.64c0-4.73,0.97-8.91,2.91-12.54
			c1.92-3.61,4.58-6.42,7.94-8.46c3.36-2.02,7.27-3.04,11.72-3.04c4.45,0,8.36,1.04,11.74,3.11c3.36,2.09,5.97,4.93,7.86,8.53
			c1.87,3.61,2.81,7.79,2.81,12.54C721.03,571.17,720.09,575.33,718.22,578.94z"/>
		<path class="st1" d="M806.13,540.62c-2.36-3.21-5.4-5.75-9.13-7.64c-4.33-2.19-9.23-3.26-14.78-3.26
			c-6.34,0-12.09,1.54-17.22,4.68c-5.15,3.11-9.18,7.32-12.12,12.61c-2.91,5.3-4.38,11.3-4.38,18.04c0,6.72,1.49,12.79,4.45,18.19
			c2.99,5.4,7.02,9.63,12.12,12.69c5.08,3.06,10.85,4.6,17.29,4.6c5.42,0,10.3-1.09,14.56-3.26c3.76-1.94,6.82-4.53,9.21-7.79v9.41
			c0,6.44-2.14,11.57-6.39,15.38c-3.88,3.48-8.96,5.37-15.23,5.65v12.79c6.44-0.25,12.19-1.64,17.22-4.18
			c5.6-2.84,9.95-6.79,13.09-11.89c3.11-5.1,4.68-11,4.68-17.74v-67.7h-13.36V540.62z M804.11,577.15
			c-1.84,3.41-4.38,6.07-7.64,7.94c-3.28,1.89-7.14,2.84-11.59,2.84c-4.35,0-8.24-0.97-11.64-2.91c-3.41-1.92-6.1-4.63-8.01-8.09
			c-1.94-3.46-2.91-7.41-2.91-11.87c0-4.45,0.97-8.39,2.91-11.82c1.92-3.41,4.58-6.07,7.94-8.01c3.36-1.92,7.27-2.89,11.72-2.89
			c4.35,0,8.19,0.97,11.52,2.89c3.31,1.94,5.87,4.6,7.71,8.01c1.82,3.43,2.74,7.41,2.74,11.97
			C806.85,569.76,805.93,573.74,804.11,577.15z"/>
		<path class="st1" d="M899.73,546.49c-2.84-5.25-6.77-9.36-11.82-12.32c-5.05-2.99-10.77-4.45-17.22-4.45
			c-6.82,0-12.99,1.59-18.49,4.83c-5.5,3.21-9.85,7.59-13.06,13.14c-3.21,5.52-4.83,11.77-4.83,18.69c0,7.04,1.64,13.34,4.9,18.86
			c3.26,5.55,7.69,9.93,13.29,13.14c5.6,3.23,11.97,4.83,19.08,4.83c5.55,0,10.75-1.02,15.6-3.11c4.83-2.09,8.98-5.1,12.47-9.06
			l-8.61-8.76c-2.39,2.76-5.23,4.85-8.53,6.25c-3.33,1.37-6.97,2.07-10.92,2.07c-4.75,0-8.96-1.02-12.61-3.04
			c-3.68-2.04-6.49-4.9-8.46-8.61c-1.22-2.26-2.07-4.78-2.54-7.51h55.24c0.3-1.37,0.5-2.64,0.6-3.78c0.1-1.12,0.15-2.19,0.15-3.18
			C903.96,557.71,902.54,551.74,899.73,546.49z M848.03,560.3c0.45-2.54,1.22-4.88,2.34-6.99c1.87-3.56,4.55-6.32,8.01-8.31
			c3.46-1.97,7.46-2.96,12.02-2.96c4.35,0,8.06,0.92,11.15,2.74c3.06,1.84,5.45,4.4,7.12,7.74c1.14,2.26,1.92,4.85,2.29,7.79H848.03
			z"/>
	</g>
</g>
</svg>
