<?xml version="1.0" encoding="UTF-8"?>
<svg version="1.1" xmlns="http://www.w3.org/2000/svg" width="1920" height="1080">
<path d="M0 0 C127.62754357 -9.40011595 127.62754357 -9.40011595 154.36778641 12.89248466 C173.17648416 29.80620215 177.11501557 50.28532249 178.52904069 74.82484132 C180.27188842 108.24509139 178.47633012 141.66478687 176 175 C167.75 175 159.5 175 151 175 C151 183.25 151 191.5 151 200 C23.37245643 209.40011595 23.37245643 209.40011595 -3.36778641 187.10751534 C-22.17648416 170.19379785 -26.11501557 149.71467751 -27.52904069 125.17515868 C-29.27188842 91.75490861 -27.47633012 58.33521313 -25 25 C-16.75 25 -8.5 25 0 25 C0 16.75 0 8.5 0 0 Z M1 26 C1 74.84 1 123.68 1 174 C50.17 174 99.34 174 150 174 C150 125.16 150 76.32 150 26 C100.83 26 51.66 26 1 26 Z " fill="#FE2B00" transform="translate(641,440)"/>
<path d="M0 0 C127.24249778 -9.72111798 127.24249778 -9.72111798 154.36778641 12.89248466 C173.17648416 29.80620215 177.11501557 50.28532249 178.52904069 74.82484132 C180.27188842 108.24509139 178.47633012 141.66478687 176 175 C167.42 175 158.84 175 150 175 C150 125.83 150 76.66 150 26 C101.00890568 26.03962073 101.00890568 26.03962073 52.01782227 26.09008789 C42.56433105 26.09460449 42.56433105 26.09460449 38.14537048 26.09544373 C35.04457389 26.0963792 31.94379424 26.10014179 28.84300232 26.10557556 C24.89523233 26.11240259 20.94748721 26.11449714 16.99971187 26.11307228 C15.54620629 26.1133705 14.0926999 26.11537228 12.63919938 26.11921513 C10.68509601 26.124144 8.73097913 26.12240371 6.77687073 26.12025452 C5.67901528 26.12117631 4.58115984 26.1220981 3.45003605 26.12304783 C1 26 1 26 0 25 C-0.08737645 23.14630389 -0.10698153 21.28932459 -0.09765625 19.43359375 C-0.09443359 18.30888672 -0.09121094 17.18417969 -0.08789062 16.02539062 C-0.07951172 14.84138672 -0.07113281 13.65738281 -0.0625 12.4375 C-0.05798828 11.24962891 -0.05347656 10.06175781 -0.04882812 8.83789062 C-0.03699675 5.89187774 -0.02051287 2.94596319 0 0 Z " fill="#121D61" transform="translate(641,440)"/>
<path d="M0 0 C0.495 0.4125 0.99 0.825 1.5 1.25 C1.83 -0.73 2.16 -2.71 2.5 -4.75 C6.79 -4.75 11.08 -4.75 15.5 -4.75 C15.56975308 5.88183563 15.62293921 16.51361611 15.65543652 27.14563465 C15.6710398 32.0834192 15.69217975 37.02104628 15.72631836 41.95874023 C15.75910321 46.73092365 15.77689308 51.50295634 15.78463173 56.27524376 C15.7901411 58.08875587 15.80089885 59.90226047 15.81719017 61.71570778 C16.02834113 86.21147241 16.02834113 86.21147241 8.2109375 95.53515625 C0.94984463 102.81282696 -9.01316593 105.27203439 -19.125 105.5625 C-28.72260326 105.14062733 -37.7827301 103.43608101 -45.09765625 96.80078125 C-49.92946456 91.43367057 -50.78091636 86.27290911 -50.5 79.25 C-46.05208525 79.14715804 -41.84226852 79.22256411 -37.5 80.25 C-35.76855123 82.20500292 -35.15550556 83.85280047 -34.31640625 86.30859375 C-33.56413648 88.60823686 -33.56413648 88.60823686 -30.5 90.1875 C-29.51 90.538125 -28.52 90.88875 -27.5 91.25 C-26.88125 91.476875 -26.2625 91.70375 -25.625 91.9375 C-18.81499118 92.93897189 -12.6777904 92.39784358 -6.5 89.25 C-2.6267988 86.06306989 -0.51125712 82.12242068 0.5 77.25 C0.64735341 73.57632705 0.61767565 69.92409531 0.5 66.25 C-0.42232422 66.88228516 -0.42232422 66.88228516 -1.36328125 67.52734375 C-2.17152344 68.07519531 -2.97976563 68.62304688 -3.8125 69.1875 C-5.01326172 70.00541016 -5.01326172 70.00541016 -6.23828125 70.83984375 C-12.31213837 74.62682547 -20.55467304 73.8975187 -27.5 73.25 C-36.00585528 71.25627087 -42.01537454 66.8794451 -46.6875 59.5 C-53.79487492 46.97836826 -55.05649243 33.04851749 -51.75 19.08203125 C-48.56456143 9.67171481 -43.50810924 0.9966973 -34.5 -3.75 C-22.16143978 -8.52114297 -10.76430453 -7.53501317 0 0 Z M-34.24609375 14.30078125 C-40.08522006 23.37780315 -39.82517897 35.21571668 -37.87890625 45.546875 C-35.81623583 52.18409005 -32.31458303 56.45320862 -26.5 60.25 C-20.89614002 62.11795333 -14.79258879 61.98535867 -9.1875 60.1875 C-2.80079182 55.58312899 1.21117836 50.09033166 2.5 42.25 C3.44687674 31.17492382 3.44562749 20.91355195 -3.6875 11.875 C-8.03873445 7.2667306 -12.34070489 5.71073054 -18.5 4.8125 C-25.15016862 5.78231626 -30.16519297 8.9967222 -34.24609375 14.30078125 Z " fill="#000000" transform="translate(1201.5,504.75)"/>
<path d="M0 0 C9.15982614 0.1754756 17.89380701 2.57331859 24.375 9.25 C28.90787775 14.95377455 31.375 20.88239142 31.375 28.25 C26.755 28.58 22.135 28.91 17.375 29.25 C16.818125 27.868125 16.26125 26.48625 15.6875 25.0625 C13.44391127 20.03812523 10.89876137 16.64471023 6 13.9375 C0.07394924 12.38543909 -4.43431105 13.00027869 -9.70703125 15.9375 C-17.3507413 21.16822623 -20.15260883 29.04492294 -22.2265625 37.78515625 C-22.62686377 40.26152979 -22.72489771 42.5568535 -22.6875 45.0625 C-22.67396484 46.24779297 -22.67396484 46.24779297 -22.66015625 47.45703125 C-22.64855469 48.04871094 -22.63695312 48.64039063 -22.625 49.25 C-22.00625 48.528125 -21.3875 47.80625 -20.75 47.0625 C-15.05997699 41.33986941 -6.92497205 38.15434729 1.0625 38 C9.80227192 38.10297228 17.15863796 41.09017922 23.4140625 47.26171875 C31.77798501 56.2187194 33.76697026 64.32615199 33.65234375 76.4765625 C32.87812338 87.01032137 29.27467103 95.78687968 21.52734375 102.9609375 C12.45335796 110.3572281 2.86131824 111.34218197 -8.625 110.25 C-18.31297672 107.94519909 -26.08071763 102.23513863 -31.30859375 93.81640625 C-36.84494921 83.02297735 -37.83127531 72.30907485 -37.86523438 60.37670898 C-37.87482727 58.34901069 -37.90584804 56.32237816 -37.9375 54.29492188 C-38.07012248 38.21946205 -35.54013259 21.61407786 -24.375 9.1875 C-17.49831267 3.05591649 -8.97349385 0.61886164 0 0 Z M-17.625 59.25 C-22.32015611 65.68863428 -22.57361603 72.49980705 -21.625 80.25 C-19.66387012 87.06392575 -16.23846203 92.95471473 -10 96.5625 C-4.71096335 98.97556141 0.84691132 99.46705385 6.390625 97.5546875 C11.77083921 94.77101145 15.29820264 91.13815416 17.3828125 85.546875 C19.95197614 76.52008385 20.26019222 68.36834599 15.61328125 60.00390625 C12.77762204 55.98746781 8.91301988 53.12296457 4.375 51.25 C-4.97919477 50.16197432 -11.41814125 51.89977254 -17.625 59.25 Z " fill="#000000" transform="translate(934.625,469.75)"/>
<path d="M0 0 C4.62 0 9.24 0 14 0 C14 35.31 14 70.62 14 107 C9.71 107 5.42 107 1 107 C0.67 105.02 0.34 103.04 0 101 C-0.50789063 101.40992188 -1.01578125 101.81984375 -1.5390625 102.2421875 C-2.22742187 102.78101563 -2.91578125 103.31984375 -3.625 103.875 C-4.29789063 104.40867187 -4.97078125 104.94234375 -5.6640625 105.4921875 C-12.27210854 109.75758177 -19.39416824 109.70772757 -27 109 C-35.90382809 106.91453115 -42.80342528 101.65065188 -47.8125 94.0625 C-54.8514147 81.83327445 -56.27430625 66.51253289 -52.75 52.875 C-49.43707085 42.73401501 -45.07807587 35.6502828 -35.640625 30.296875 C-28.31744488 26.70028358 -20.95091867 26.24055301 -13 28 C-8.55680554 29.74075838 -4.39689413 31.60310587 -1 35 C-0.67 23.45 -0.34 11.9 0 0 Z M-31.7265625 43.48046875 C-38.52784644 50.80106255 -40.33866597 59.94983605 -40.1484375 69.765625 C-39.55774496 78.65710222 -37.86886626 86.09443375 -31.4453125 92.56640625 C-26.69989949 96.70978925 -22.73575502 97.42490168 -16.6328125 97.3359375 C-11.42505007 96.67144556 -7.79807304 94.145792 -4.46484375 90.16796875 C1.87111378 80.8025738 2.19215038 69.86418525 0.53515625 58.93359375 C-1.20971122 51.51016352 -4.45720057 45.96829141 -10.3125 41.0625 C-17.81069035 38.09809916 -25.39164592 38.04849277 -31.7265625 43.48046875 Z " fill="#000000" transform="translate(1120,471)"/>
<path d="M0 0 C7.17180619 6.7658549 10.99870073 15.69389513 12.25 25.375 C12.25 29.335 12.25 33.295 12.25 37.375 C-15.965 37.87 -15.965 37.87 -44.75 38.375 C-42.12989944 51.08764828 -42.12989944 51.08764828 -33.75 59.25 C-28.20068324 62.07960211 -22.84928399 62.29244105 -16.75 61.375 C-9.212378 58.83544277 -6.14991311 53.17482621 -2.75 46.375 C1.87 47.035 6.49 47.695 11.25 48.375 C9.94011186 57.544217 6.27759855 63.39481109 -0.95703125 69.16015625 C-10.38997884 75.55154339 -22.80111746 75.60110214 -33.73828125 73.9140625 C-42.54863943 71.58472985 -49.63876035 65.85227343 -54.75 58.375 C-61.37616086 46.07532121 -61.92476662 30.32881527 -58 17 C-54.51807517 7.44608697 -48.44321376 0.66062886 -39.75 -4.625 C-26.96847505 -9.9506354 -11.06514367 -8.52837493 0 0 Z M-40.2734375 12.33203125 C-42.99162158 16.09290499 -44.75 20.6982545 -44.75 25.375 C-30.89 25.375 -17.03 25.375 -2.75 25.375 C-4.80332089 14.53881813 -4.80332089 14.53881813 -11.75 7.375 C-21.79740419 1.52386462 -32.60238215 4.11804732 -40.2734375 12.33203125 Z " fill="#000000" transform="translate(1291.75,505.625)"/>
<path d="M0 0 C8.31356284 7.80119615 11.7156455 16.3096005 12.75 27.6875 C12.75 30.6575 12.75 33.6275 12.75 36.6875 C-6.39 36.6875 -25.53 36.6875 -45.25 36.6875 C-41.45529895 50.99703569 -41.45529895 50.99703569 -31.25 59.6875 C-25.74464631 61.5226179 -19.44716689 61.72671179 -13.89453125 59.921875 C-7.95045241 56.65665568 -5.37370391 51.54444483 -2.25 45.6875 C2.37 46.3475 6.99 47.0075 11.75 47.6875 C10.35441461 56.06101232 7.06185325 62.13351998 0.5 67.625 C-9.47287103 74.63743336 -21.42104942 75.09825109 -33.18359375 73.21875 C-42.8022288 70.69779729 -50.13540423 65.17345311 -55.25 56.6875 C-61.38365954 45.04557367 -61.45594628 27.22904736 -57.6875 14.8125 C-53.43670799 4.58681851 -46.29494156 -2.35362455 -36.125 -6.625 C-23.03079877 -9.75622203 -10.55068357 -8.74311767 0 0 Z M-38.15234375 9.55859375 C-41.87370931 14.37180251 -44.25 18.50448695 -44.25 24.6875 C-30.39 24.6875 -16.53 24.6875 -2.25 24.6875 C-4.22960874 15.77926068 -5.67905864 10.73479424 -13.25 5.6875 C-21.63267216 2.04285993 -31.45049731 2.96683924 -38.15234375 9.55859375 Z " fill="#000000" transform="translate(1043.25,506.3125)"/>
<path d="M0 0 C2.97 0 5.94 0 9 0 C9 35.64 9 71.28 9 108 C4.38 108 -0.24 108 -5 108 C-5.33 81.27 -5.66 54.54 -6 27 C-8.64 28.98 -11.28 30.96 -14 33 C-16.8049759 34.54312382 -19.55903033 35.9961245 -22.4375 37.375 C-23.15615234 37.72949219 -23.87480469 38.08398438 -24.61523438 38.44921875 C-29.8300555 41 -29.8300555 41 -31 41 C-32.03026993 36.03467133 -32.34683471 31.9246857 -31 27 C-27.72860181 23.55630363 -23.34764782 21.58926487 -19.20703125 19.37109375 C-12.08197467 15.54824217 -6.58845158 9.79789576 -2.4375 2.875 C-1.633125 1.92625 -0.82875 0.9775 0 0 Z " fill="#000000" transform="translate(878,470)"/>
</svg>
